<svg width="14" height="14" viewBox="0 0 14 14" fill="none" xmlns="http://www.w3.org/2000/svg">
<g clip-path="url(#clip0_914_175)">
<path d="M6.3506 1.96385C7.19299 1.96308 8.01667 2.21217 8.71746 2.67962C9.41825 3.14706 9.96466 3.81185 10.2876 4.58989C10.6105 5.36793 10.6953 6.22426 10.5315 7.05055C10.3676 7.87685 9.96234 8.63597 9.36696 9.2319C8.77158 9.82783 8.01282 10.2338 7.18668 10.3984C6.36054 10.563 5.50413 10.4789 4.7258 10.1567C3.94746 9.83455 3.28217 9.28875 2.81409 8.58839C2.346 7.88802 2.09616 7.06457 2.09616 6.22218C2.10126 5.09505 2.55102 4.01548 3.34766 3.2181C4.14431 2.42072 5.22347 1.96998 6.3506 1.96385ZM6.3506 1.16663C5.35071 1.16663 4.37327 1.46313 3.54189 2.01864C2.7105 2.57415 2.06252 3.36372 1.67988 4.2875C1.29723 5.21129 1.19712 6.22779 1.39219 7.20847C1.58726 8.18915 2.06875 9.08997 2.77578 9.797C3.48282 10.504 4.38363 10.9855 5.36431 11.1806C6.34499 11.3757 7.3615 11.2755 8.28528 10.8929C9.20906 10.5103 9.99863 9.86228 10.5541 9.0309C11.1097 8.19951 11.4062 7.22207 11.4062 6.22218C11.4062 4.88136 10.8735 3.59546 9.92542 2.64736C8.97732 1.69926 7.69142 1.16663 6.3506 1.16663Z" fill="#A5A5A5"/>
<path d="M13.872 13.2524L10.6255 10L10 10.618L13.2465 13.8704C13.2873 13.9113 13.3358 13.9438 13.3891 13.966C13.4425 13.9882 13.4998 13.9998 13.5577 14C13.6156 14.0002 13.6729 13.9891 13.7265 13.9672C13.78 13.9454 13.8287 13.9132 13.8698 13.8726C13.9109 13.8321 13.9435 13.7838 13.9659 13.7307C13.9882 13.6776 13.9998 13.6206 14 13.563C14.0002 13.5054 13.989 13.4483 13.967 13.395C13.9451 13.3417 13.9128 13.2933 13.872 13.2524Z" fill="#A5A5A5"/>
</g>
<defs>
<clipPath id="clip0_914_175">
<rect width="14" height="14" fill="white"/>
</clipPath>
</defs>
</svg>
