<svg width="15" height="15" viewBox="0 0 15 15" fill="none" xmlns="http://www.w3.org/2000/svg">
<g clip-path="url(#clip0_914_966)">
<path d="M14.7182 5.56336C14.608 5.23547 14.3242 4.99641 13.9825 4.94414L10.0054 4.33641L8.21897 0.530859C8.06663 0.206484 7.74108 0 7.38342 0C7.02553 0 6.70022 0.206484 6.54788 0.530859L4.76124 4.33664L0.784127 4.94437C0.442408 4.99664 0.15858 5.23547 0.0486583 5.56359C-0.0612636 5.89172 0.0217051 6.25312 0.263346 6.50109L3.16772 9.4793L2.47983 13.6927C2.42311 14.0414 2.571 14.392 2.85952 14.5959C3.1478 14.7998 3.52842 14.8205 3.8385 14.6494L7.38366 12.6888L10.9288 14.6494C11.0687 14.7267 11.2227 14.7647 11.376 14.7647C11.5626 14.7647 11.7491 14.708 11.9078 14.5959C12.1963 14.3923 12.344 14.0416 12.2873 13.6927L11.5994 9.4793L14.504 6.50109C14.7451 6.25312 14.8281 5.89172 14.7182 5.56336Z" fill="#F3AB34"/>
</g>
<defs>
<clipPath id="clip0_914_966">
<rect width="15" height="15" fill="white"/>
</clipPath>
</defs>
</svg>
