<svg width="24" height="24" viewBox="0 0 25 24" fill="none" xmlns="http://www.w3.org/2000/svg">
<path d="M24.1725 9.43658C23.9982 8.91792 23.5493 8.53977 23.0087 8.45709L16.7177 7.49577L13.8919 1.47609C13.6509 0.962988 13.136 0.636368 12.5702 0.636368C12.0041 0.636368 11.4895 0.962988 11.2485 1.47609L8.42239 7.49614L2.13133 8.45746C1.59079 8.54014 1.14183 8.91792 0.967951 9.43695C0.794075 9.95599 0.925316 10.5277 1.30755 10.9199L5.90174 15.6309L4.81362 22.2956C4.7239 22.8473 4.95784 23.4019 5.41422 23.7245C5.87022 24.047 6.4723 24.0796 6.96279 23.809L12.5706 20.7078L18.1784 23.809C18.3997 23.9313 18.6433 23.9914 18.8857 23.9914C19.1808 23.9914 19.476 23.9017 19.7269 23.7245C20.1833 23.4023 20.4169 22.8477 20.3272 22.2956L19.239 15.6309L23.8336 10.9199C24.2151 10.5277 24.3463 9.95599 24.1725 9.43658Z" fill="#CCCCCC"/>
</svg>
