<svg width="20" height="20" viewBox="0 0 20 20" xmlns="http://www.w3.org/2000/svg">
  <defs>
    <mask id="reverse">
      <rect width="100%" height="100%" fill="white"/>
      <path fill-rule="evenodd" clip-rule="evenodd" d="M12.1113 0.477919C13.153 0.0418386 14.2967 -0.071858 15.4009 0.150898C16.5051 0.373654 17.5213 0.923086 18.3238 1.73121C18.8556 2.26538 19.2781 2.90281 19.5665 3.60621C19.8549 4.30961 20.0035 5.06485 20.0035 5.82776C20.0035 6.59066 19.8549 7.34591 19.5665 8.04931C19.2781 8.75271 18.8556 9.39014 18.3238 9.92431L10.6588 17.6834C10.4833 17.8609 10.2466 17.9604 10 17.9604C9.75339 17.9604 9.51672 17.8609 9.34125 17.6834L1.675 9.92559C1.14502 9.39024 0.724063 8.75248 0.436536 8.04927C0.149009 7.34607 0.000630561 6.59141 0 5.82904C0.00046515 5.06645 0.148764 4.31155 0.436295 3.60812C0.723827 2.90468 1.14487 2.26671 1.675 1.73121C2.74944 0.645761 4.19828 0.0377003 5.7075 0.0388199C7.2175 0.0388199 8.66875 0.646902 9.74 1.73121L10 1.99364L10.26 1.73121C10.7908 1.19367 11.4193 0.767878 12.11 0.477919H12.1113Z"/>
    </mask>
  </defs>
  <rect fill="white" width="100%" height="100%" mask="url(#reverse)"/>
</svg>
