<svg width="20" height="20" viewBox="0 0 20 20" xmlns="http://www.w3.org/2000/svg">
  <defs>
    <mask id="reverse">
      <rect width="100%" height="100%" fill="white"/>
      <path d="M19.6097 15.9311L15.2149 11.5363C15.0157 11.3371 14.75 11.2274 14.4668 11.2274C14.3471 11.2274 14.2309 11.2482 14.1211 11.2859L13.0671 10.232C12.9098 10.0746 12.7001 9.988 12.4766 9.988C12.2531 9.988 12.0433 10.0746 11.886 10.2319L11.6089 10.5091L11.1131 10.0133L13.2826 7.83244C13.7896 8.05231 14.3405 8.15743 14.9097 8.15743C14.9098 8.15743 14.91 8.15743 14.9101 8.15743C16.0024 8.15743 17.0294 7.74336 17.802 6.97083C18.837 5.9359 19.2408 4.42019 18.8557 3.0062C18.8079 2.83031 18.6427 2.70548 18.463 2.70548C18.3857 2.70548 18.2708 2.7297 18.1629 2.83755C18.1482 2.85214 16.6868 4.3031 16.2038 4.78604C16.1507 4.83922 16.0629 4.84751 16.0118 4.84751C15.9751 4.84751 15.9549 4.84367 15.9549 4.84367V4.84378L15.9218 4.84C15.3215 4.78488 14.6014 4.67385 14.4197 4.59006C14.333 4.40694 14.2288 3.66954 14.1732 3.05954V3.05135L14.1601 3.03421C14.1569 3.0072 14.1429 2.86951 14.2639 2.74852C14.7665 2.24581 16.1484 0.851477 16.1615 0.83817C16.2785 0.721303 16.323 0.574314 16.2858 0.434786C16.2412 0.267531 16.099 0.173881 15.9813 0.142089C15.6326 0.047827 15.2718 0 14.9097 0C13.8173 0 12.7901 0.425377 12.0177 1.19774C10.7983 2.41713 10.5124 4.22081 11.1577 5.71547L8.98653 7.88662L5.27155 4.17175C5.26927 4.16947 5.26676 4.16758 5.26442 4.16535C5.2995 4.02243 5.31492 3.87399 5.30847 3.72288C5.29015 3.29249 5.10118 2.87658 4.7763 2.55176L3.45418 1.22953C3.42528 1.20063 3.26944 1.05643 3.03855 1.05643C2.93131 1.05643 2.77113 1.08889 2.61651 1.24345L1.1675 2.69251C0.999298 2.86071 0.939333 3.07685 1.00303 3.28559C1.04573 3.42545 1.12875 3.51604 1.15319 3.54048L2.47041 4.8577C2.81444 5.20173 3.25457 5.3912 3.70974 5.3912H3.70979C3.83713 5.3912 3.96251 5.37556 4.084 5.34566C4.08629 5.348 4.08818 5.3505 4.09046 5.35279L7.80538 9.06771L6.04085 10.8322C5.96134 10.9117 5.89224 10.9988 5.83339 11.0914C5.31665 10.8612 4.75303 10.7391 4.17036 10.7391C3.0778 10.7391 2.05066 11.1646 1.27813 11.9371C0.243141 12.9721 -0.160633 14.4935 0.224378 15.9075C0.272205 16.0833 0.437344 16.211 0.617016 16.211H0.617072C0.694408 16.211 0.809326 16.1881 0.917174 16.0803C0.931928 16.0657 2.39335 14.6155 2.8763 14.1325C2.92947 14.0794 3.02323 14.0715 3.07435 14.0715C3.11109 14.0715 3.13698 14.0755 3.13737 14.0755H3.13732L3.16443 14.0793C3.76458 14.1343 4.49028 14.2453 4.67207 14.3292C4.7587 14.5124 4.87112 15.2498 4.92563 15.8598L4.92952 15.8877C4.92986 15.8892 4.94968 16.042 4.82084 16.1709C4.31813 16.6736 2.93404 18.0679 2.9209 18.0812C2.80398 18.1981 2.75832 18.3451 2.79551 18.4846C2.84017 18.6519 2.98181 18.7455 3.09946 18.7773C3.44822 18.8716 3.80868 18.9194 4.17086 18.9194C5.26331 18.9194 6.29028 18.494 7.06264 17.7217C7.83522 16.9491 8.26071 15.9219 8.26066 14.8294C8.26066 14.2467 8.13856 13.6832 7.90844 13.1664C8.00109 13.1076 8.08811 13.0385 8.16756 12.959L9.93215 11.1944L10.4279 11.6901L10.1507 11.9673C9.99334 12.1246 9.90671 12.3344 9.90671 12.5579C9.90671 12.7814 9.99334 12.9911 10.1507 13.1484L11.2046 14.2023C11.1669 14.3121 11.1461 14.4283 11.1461 14.548C11.1461 14.8312 11.2559 15.0969 11.4551 15.2961L15.85 19.6909C16.0491 19.8901 16.3148 19.9998 16.598 19.9998C16.8812 19.9998 17.1468 19.8901 17.346 19.6909L19.6098 17.4271C19.809 17.2279 19.9188 16.9622 19.9188 16.6791C19.9187 16.396 19.809 16.1304 19.6097 15.9311Z"/>
    </mask>
  </defs>
  <rect fill="white" width="100%" height="100%" mask="url(#reverse)"/>
</svg>
