<svg width="35" height="35" viewBox="0 0 35 35" fill="current" xmlns="http://www.w3.org/2000/svg">
<path fill-rule="evenodd" clip-rule="evenodd" d="M7.10938 3.28125C6.67425 3.28125 6.25695 3.4541 5.94928 3.76178C5.6416 4.06945 5.46875 4.48675 5.46875 4.92188V30.0781C5.46875 30.9837 6.20375 31.7188 7.10938 31.7188H15.8594C16.2945 31.7188 16.7118 31.8916 17.0195 32.1993C17.3271 32.507 17.5 32.9243 17.5 33.3594C17.5 33.7945 17.3271 34.2118 17.0195 34.5195C16.7118 34.8271 16.2945 35 15.8594 35H7.10938C5.80401 35 4.55211 34.4814 3.62908 33.5584C2.70605 32.6354 2.1875 31.3835 2.1875 30.0781V4.92188C2.1875 3.61651 2.70605 2.36461 3.62908 1.44158C4.55211 0.518553 5.80401 0 7.10938 0L20.8753 0C21.5994 0 22.2972 0.28875 22.8091 0.800625L32.0119 10.0034C32.5238 10.5175 32.8125 11.2131 32.8125 11.9372V14.7656C32.8125 15.2007 32.6396 15.618 32.332 15.9257C32.0243 16.2334 31.607 16.4062 31.1719 16.4062C30.7368 16.4062 30.3195 16.2334 30.0118 15.9257C29.7041 15.618 29.5312 15.2007 29.5312 14.7656V13.125H21.3281C20.893 13.125 20.4757 12.9521 20.168 12.6445C19.8604 12.3368 19.6875 11.9195 19.6875 11.4844V3.28125H7.10938ZM22.9688 5.6L27.2125 9.84375H22.9688V5.6Z"/>
<path fill-rule="evenodd" clip-rule="evenodd" d="M35 26.25C35 28.5706 34.0781 30.7962 32.4372 32.4372C30.7962 34.0781 28.5706 35 26.25 35C23.9294 35 21.7038 34.0781 20.0628 32.4372C18.4219 30.7962 17.5 28.5706 17.5 26.25C17.5 23.9294 18.4219 21.7038 20.0628 20.0628C21.7038 18.4219 23.9294 17.5 26.25 17.5C28.5706 17.5 30.7962 18.4219 32.4372 20.0628C34.0781 21.7038 35 23.9294 35 26.25ZM31.255 23.4675C31.5576 23.7797 31.7239 24.1993 31.7174 24.6341C31.7108 25.0689 31.5319 25.4833 31.22 25.7863L25.9569 30.8919C25.6508 31.1886 25.2413 31.3545 24.815 31.3545C24.3887 31.3545 23.9792 31.1886 23.6731 30.8919L21.28 28.5731C20.9673 28.2703 20.7877 27.8556 20.7807 27.4204C20.7738 26.9851 20.94 26.5649 21.2428 26.2522C21.5457 25.9395 21.9603 25.7599 22.3956 25.7529C22.8308 25.7459 23.251 25.9122 23.5638 26.215L24.815 27.4291L28.9362 23.4325C29.2485 23.1299 29.6681 22.9636 30.1029 22.9701C30.5377 22.9767 30.952 23.1556 31.255 23.4675Z"/>
</svg>
