<svg width="40" height="40" viewBox="0 0 40 40" fill="none" xmlns="http://www.w3.org/2000/svg">
<path fill-rule="evenodd" clip-rule="evenodd" d="M8.125 3.75C7.62772 3.75 7.15081 3.94754 6.79917 4.29917C6.44754 4.65081 6.25 5.12772 6.25 5.625V34.375C6.25 35.41 7.09 36.25 8.125 36.25H18.125C18.6223 36.25 19.0992 36.4475 19.4508 36.7992C19.8025 37.1508 20 37.6277 20 38.125C20 38.6223 19.8025 39.0992 19.4508 39.4508C19.0992 39.8025 18.6223 40 18.125 40H8.125C6.63316 40 5.20242 39.4074 4.14752 38.3525C3.09263 37.2976 2.5 35.8668 2.5 34.375V5.625C2.5 4.13316 3.09263 2.70242 4.14752 1.64752C5.20242 0.592632 6.63316 0 8.125 0L23.8575 0C24.685 0 25.4825 0.33 26.0675 0.915L36.585 11.4325C37.17 12.02 37.5 12.815 37.5 13.6425V16.875C37.5 17.3723 37.3025 17.8492 36.9508 18.2008C36.5992 18.5525 36.1223 18.75 35.625 18.75C35.1277 18.75 34.6508 18.5525 34.2992 18.2008C33.9475 17.8492 33.75 17.3723 33.75 16.875V15H24.375C23.8777 15 23.4008 14.8025 23.0492 14.4508C22.6975 14.0992 22.5 13.6223 22.5 13.125V3.75H8.125ZM26.25 6.4L31.1 11.25H26.25V6.4Z" fill="white"/>
<path fill-rule="evenodd" clip-rule="evenodd" d="M40 30C40 32.6522 38.9464 35.1957 37.0711 37.0711C35.1957 38.9464 32.6522 40 30 40C27.3478 40 24.8043 38.9464 22.9289 37.0711C21.0536 35.1957 20 32.6522 20 30C20 27.3478 21.0536 24.8043 22.9289 22.9289C24.8043 21.0536 27.3478 20 30 20C32.6522 20 35.1957 21.0536 37.0711 22.9289C38.9464 24.8043 40 27.3478 40 30ZM35.72 26.82C36.0659 27.1768 36.2559 27.6564 36.2484 28.1533C36.2409 28.6502 36.0365 29.1238 35.68 29.47L29.665 35.305C29.3152 35.6441 28.8472 35.8337 28.36 35.8337C27.8728 35.8337 27.4048 35.6441 27.055 35.305L24.32 32.655C23.9626 32.3089 23.7574 31.835 23.7494 31.3376C23.7414 30.8401 23.9314 30.3599 24.2775 30.0025C24.6236 29.6451 25.0975 29.4399 25.5949 29.4319C26.0924 29.4239 26.5726 29.6139 26.93 29.96L28.36 31.3475L33.07 26.78C33.4268 26.4341 33.9064 26.2441 34.4033 26.2516C34.9002 26.2591 35.3738 26.4635 35.72 26.82Z" fill="white"/>
</svg>
