<svg width="25" height="25" viewBox="0 0 25 25" fill="none" xmlns="http://www.w3.org/2000/svg">
<path fill-rule="evenodd" clip-rule="evenodd" d="M3.55772 18.5656C3.47101 18.8172 3.51944 19.0961 3.68507 19.3047C5.67257 21.8055 8.87647 23.4375 12.4921 23.4375C16.1077 23.4375 19.3116 21.8055 21.2991 19.3047C21.4648 19.0961 21.5124 18.8172 21.4265 18.5656C20.2249 15.0617 16.6843 12.5 12.4921 12.5C8.29991 12.5 4.75929 15.0617 3.55772 18.5656V18.5656Z" fill="white"/>
<path d="M12.4922 10.9375C15.081 10.9375 17.1797 8.83883 17.1797 6.25C17.1797 3.66117 15.081 1.5625 12.4922 1.5625C9.90335 1.5625 7.80469 3.66117 7.80469 6.25C7.80469 8.83883 9.90335 10.9375 12.4922 10.9375Z" fill="white"/>
</svg>
