<svg width="24" height="30" viewBox="0 0 24 30" fill="currentColor" xmlns="http://www.w3.org/2000/svg">
<g id="trash_icon" clip-path="url(#clip0_2027_2483)">
<path id="Vector" d="M7.80005 13.6328C7.80005 12.8777 8.42684 12.2656 9.20005 12.2656C9.97327 12.2656 10.6 12.8777 10.6 13.6328V21.8359C10.6 22.591 9.97327 23.2031 9.20005 23.2031C8.42684 23.2031 7.80005 22.591 7.80005 21.8359V13.6328Z"/>
<path id="Vector_2" d="M14.8001 12.2656C14.0269 12.2656 13.4001 12.8777 13.4001 13.6328V21.8359C13.4001 22.591 14.0269 23.2031 14.8001 23.2031C15.5734 23.2031 16.2001 22.591 16.2001 21.8359V13.6328C16.2001 12.8777 15.5734 12.2656 14.8001 12.2656Z"/>
<path id="Vector_3" fill-rule="evenodd" clip-rule="evenodd" d="M7.14361 -0.0390625C2.93312 -0.0390625 -0.324579 3.56472 0.197663 7.64476L2.60425 26.4462C2.86697 28.4988 4.65367 30.0391 6.77183 30.0391H17.2282C19.3464 30.0391 21.1331 28.4988 21.3958 26.4462L23.8024 7.64476C24.3246 3.56472 21.067 -0.0390625 16.8565 -0.0390625H7.14361ZM3.1821 5.42969C3.75495 3.85127 5.29648 2.69531 7.14361 2.69531H16.8565C18.7036 2.69531 20.245 3.85127 20.8179 5.42969H3.1821ZM3.08593 8.16406L5.38263 26.107C5.4702 26.7913 6.06576 27.3047 6.77183 27.3047H17.2282C17.9343 27.3047 18.5299 26.7913 18.6174 26.107L20.9141 8.16406H3.08593Z"/>
</g>
<defs>
<clipPath id="clip0_2027_2483">
<rect width="24" height="30" fill="white"/>
</clipPath>
</defs>
</svg>
