<svg width="20" height="20" viewBox="0 0 20 20" fill="none" xmlns="http://www.w3.org/2000/svg">
<path d="M6.25 8.75H2.08332C0.935 8.75 0 9.685 0 10.8333V17.5C0 18.6483 0.935 19.5833 2.08332 19.5833H4.58332C5.73164 19.5833 6.66664 18.6483 6.66664 17.5V9.16668C6.66668 8.93668 6.48 8.75 6.25 8.75Z" fill="#999999"/>
<path d="M20.0002 11.875C20.0002 11.3742 19.8011 10.9075 19.4586 10.5625C19.8477 10.1367 20.0461 9.56503 19.9911 8.97171C19.8936 7.91253 18.9386 7.08339 17.8177 7.08339H12.6711C12.9252 6.30921 13.3336 4.89007 13.3336 3.75007C13.3336 1.94257 11.7977 0.416748 10.8336 0.416748C9.96773 0.416748 9.34937 0.903428 9.32273 0.924248C9.22355 1.00343 9.16691 1.12343 9.16691 1.25007V4.07507L7.29359 8.13339C7.23609 8.25921 7.24359 8.40507 7.31527 8.52339C7.43777 8.72589 7.50027 8.94257 7.50027 9.16589V17.4992C7.50027 17.7 7.47695 17.9042 7.42859 18.125C7.37941 18.3492 7.52027 18.5708 7.74359 18.6208C8.10941 18.7034 8.46777 18.7492 8.75027 18.7492H16.3995C17.307 18.7492 18.1011 18.1375 18.287 17.2934C18.3828 16.8592 18.3261 16.4208 18.1369 16.0417C18.7528 15.7317 19.167 15.0967 19.167 14.3742C19.167 14.08 19.0995 13.7967 18.9711 13.5408C19.5861 13.2317 20.0002 12.5975 20.0002 11.875Z" fill="#999999"/>
</svg>
