<svg width="20" height="20" viewBox="0 0 20 20" fill="none" xmlns="http://www.w3.org/2000/svg">
<path fill-rule="evenodd" clip-rule="evenodd" d="M2.84613 14.8525C2.77676 15.0538 2.81551 15.2769 2.94801 15.4437C4.53801 17.4444 7.10113 18.75 9.99363 18.75C12.8861 18.75 15.4493 17.4444 17.0393 15.4437C17.1718 15.2769 17.2099 15.0538 17.1411 14.8525C16.1799 12.0494 13.3474 10 9.99363 10C6.63988 10 3.80738 12.0494 2.84613 14.8525Z" fill="#454868"/>
<path d="M9.99365 8.75C12.0647 8.75 13.7437 7.07107 13.7437 5C13.7437 2.92893 12.0647 1.25 9.99365 1.25C7.92258 1.25 6.24365 2.92893 6.24365 5C6.24365 7.07107 7.92258 8.75 9.99365 8.75Z" fill="#454868"/>
</svg>
