<svg width="24" height="24" viewBox="0 0 24 24" fill="none" xmlns="http://www.w3.org/2000/svg">
<path d="M23.6993 9.43658C23.5251 8.91792 23.0761 8.53977 22.5356 8.45709L16.2445 7.49577L13.4187 1.47609C13.1778 0.962988 12.6628 0.636368 12.0971 0.636368C11.5309 0.636368 11.0164 0.962988 10.7754 1.47609L7.94924 7.49614L1.65818 8.45746C1.11765 8.54014 0.668683 8.91792 0.494806 9.43695C0.32093 9.95599 0.452171 10.5277 0.834403 10.9199L5.42859 15.6309L4.34048 22.2956C4.25076 22.8473 4.48469 23.4019 4.94107 23.7245C5.39708 24.047 5.99916 24.0796 6.48965 23.809L12.0974 20.7078L17.7052 23.809C17.9266 23.9313 18.1701 23.9914 18.4126 23.9914C18.7077 23.9914 19.0028 23.9017 19.2538 23.7245C19.7102 23.4023 19.9437 22.8477 19.854 22.2956L18.7659 15.6309L23.3605 10.9199C23.742 10.5277 23.8732 9.95599 23.6993 9.43658Z" fill="#F3AB34"/>
</svg>
