<svg width="32" height="28" viewBox="0 0 32 28" fill="currentColor" xmlns="http://www.w3.org/2000/svg">
<g id="Group">
<path id="Vector" d="M31.6794 5.50407C31.3737 4.99894 30.8906 4.64343 30.3191 4.50288L13.2864 0.313612C13.1142 0.271178 12.9372 0.249756 12.7604 0.249756C11.7407 0.249756 10.8587 0.94065 10.6153 1.93006L10.1026 4.01484L1.58662 6.7171C0.44865 7.07816 -0.219432 8.26912 0.0656744 9.42859L4.16198 26.0833C4.30368 26.6594 4.66253 27.1428 5.1724 27.4444C5.51433 27.6467 5.89494 27.75 6.28143 27.75C6.47145 27.75 6.66302 27.7249 6.85189 27.6745L19.9696 24.1663L25.168 25.4449C25.3402 25.4873 25.5172 25.5088 25.6942 25.5088C26.7138 25.5088 27.5959 24.8178 27.839 23.8285L31.9355 7.17366C32.0761 6.60222 31.9851 6.00928 31.6794 5.50407ZM6.47938 25.2352L2.48732 9.00473L9.41605 6.80614L6.51911 18.5847C6.3784 19.1562 6.4694 19.7492 6.77511 20.2544C7.08074 20.7596 7.5638 21.1152 8.13556 21.2558L15.024 22.95L6.47938 25.2352ZM27.4482 15.148L25.1186 11.5603C24.8331 11.1205 24.3587 10.858 23.8494 10.858C23.5037 10.858 23.1732 10.9755 22.8936 11.1979L17.9342 15.1433C17.7854 15.2618 17.6035 15.3244 17.4082 15.3244C17.1517 15.3244 16.9129 15.2152 16.7529 15.0249L14.8739 12.7887C14.5137 12.3601 13.9366 12.1042 13.3303 12.1042C13.031 12.1042 12.7411 12.1698 12.492 12.2939L10.3271 13.3726L12.9388 2.75398L29.4951 6.82617L27.4482 15.148Z"/>
<path id="Vector_2" d="M17.0057 9.92441C17.1785 9.96693 17.3558 9.98843 17.5324 9.98843C18.5467 9.98843 19.4246 9.29975 19.6671 8.31369C19.9567 7.1359 19.2342 5.94192 18.0564 5.65215C17.8835 5.60964 17.7063 5.58813 17.5297 5.58813C16.5153 5.58813 15.6374 6.27682 15.3949 7.26288C15.1053 8.44067 15.8279 9.63465 17.0057 9.92441Z"/>
</g>
</svg>
