<svg width="27" height="27" viewBox="0 0 27 27" fill="none" xmlns="http://www.w3.org/2000/svg">
<g clip-path="url(#clip0_571_1506)">
<path d="M26.7295 6.33176C26.4716 5.90556 26.0639 5.6056 25.5817 5.48701L11.2104 1.95232C11.0651 1.91651 10.9158 1.89844 10.7666 1.89844C9.90623 1.89844 9.162 2.48138 8.95669 3.31619L8.52407 5.07523L1.33871 7.35526C0.378549 7.6599 -0.185146 8.66477 0.0554127 9.64308L3.51167 23.6955C3.63123 24.1816 3.93401 24.5894 4.36422 24.8439C4.65272 25.0146 4.97385 25.1017 5.29996 25.1017C5.46028 25.1017 5.62192 25.0806 5.78128 25.0381L16.8493 22.078L21.2355 23.1568C21.3808 23.1926 21.5302 23.2107 21.6795 23.2107C22.5398 23.2107 23.284 22.6277 23.4892 21.793L26.9456 7.74048C27.0642 7.25833 26.9875 6.75803 26.7295 6.33176ZM5.46698 22.9799L2.09868 9.28545L7.94479 7.43038L5.5005 17.3685C5.38178 17.8508 5.45856 18.3511 5.7165 18.7774C5.97438 19.2036 6.38195 19.5036 6.86438 19.6223L12.6765 21.0518L5.46698 22.9799ZM23.1594 14.4689L21.1938 11.4417C20.9529 11.0706 20.5526 10.8491 20.123 10.8491C19.8312 10.8491 19.5524 10.9483 19.3165 11.1359L15.132 14.4649C15.0065 14.5648 14.853 14.6177 14.6881 14.6177C14.4717 14.6177 14.2702 14.5255 14.1353 14.365L12.5499 12.4782C12.2459 12.1165 11.759 11.9006 11.2475 11.9006C10.9949 11.9006 10.7503 11.956 10.5401 12.0607L8.71351 12.9708L10.9171 4.01138L24.8865 7.44728L23.1594 14.4689Z" fill="#BCBCC3"/>
<path d="M14.3485 10.0613C14.4943 10.0972 14.6439 10.1153 14.7929 10.1153C15.6488 10.1153 16.3895 9.53426 16.5941 8.70228C16.8385 7.70852 16.2288 6.7011 15.2351 6.4566C15.0892 6.42073 14.9396 6.40259 14.7906 6.40259C13.9348 6.40259 13.1941 6.98367 12.9894 7.81565C12.7451 8.80941 13.3547 9.81683 14.3485 10.0613Z" fill="#BCBCC3"/>
</g>
<defs>
<clipPath id="clip0_571_1506">
<rect width="27" height="27" fill="white"/>
</clipPath>
</defs>
</svg>
