<svg width="124" height="37" viewBox="0 0 124 37" fill="none" xmlns="http://www.w3.org/2000/svg">
<path d="M48.224 13.452H53.376V30H56.708V13.452H61.888V10.4H48.224V13.452ZM66.8523 30.28C68.3456 30.28 69.6243 29.9907 70.6883 29.412C71.7523 28.8333 72.6203 27.9653 73.2923 26.808L70.6883 25.744C70.2776 26.4347 69.7643 26.948 69.1483 27.284C68.5323 27.62 67.8136 27.788 66.9923 27.788C66.2083 27.788 65.5363 27.62 64.9763 27.284C64.435 26.948 64.0243 26.4627 63.7443 25.828C63.4643 25.1747 63.3243 24.3813 63.3243 23.448C63.343 22.5147 63.4923 21.7307 63.7723 21.096C64.0523 20.4613 64.463 19.976 65.0043 19.64C65.5456 19.304 66.199 19.136 66.9643 19.136C67.599 19.136 68.1496 19.276 68.6163 19.556C69.1016 19.836 69.475 20.228 69.7363 20.732C70.0163 21.236 70.1563 21.8333 70.1563 22.524C70.1563 22.6547 70.119 22.8227 70.0443 23.028C69.9883 23.2147 69.9323 23.364 69.8763 23.476L70.8003 22.188H62.0643V24.26H73.3763C73.395 24.1853 73.4043 24.064 73.4043 23.896C73.423 23.728 73.4323 23.5693 73.4323 23.42C73.4323 22.0387 73.171 20.8627 72.6483 19.892C72.1443 18.9027 71.4163 18.1467 70.4643 17.624C69.5123 17.1013 68.355 16.84 66.9923 16.84C65.6296 16.84 64.4443 17.12 63.4363 17.68C62.4283 18.2213 61.6443 18.996 61.0843 20.004C60.543 21.012 60.2723 22.1973 60.2723 23.56C60.2723 24.904 60.543 26.08 61.0843 27.088C61.6256 28.096 62.391 28.88 63.3803 29.44C64.3883 30 65.5456 30.28 66.8523 30.28ZM76.9067 25.772L75.1427 27.536C75.5161 28.0213 75.9734 28.488 76.5147 28.936C77.0747 29.3653 77.7187 29.72 78.4467 30C79.1934 30.2613 80.0054 30.392 80.8827 30.392C82.3014 30.392 83.4214 30.028 84.2427 29.3C85.0827 28.5533 85.5027 27.5733 85.5027 26.36C85.5027 25.576 85.3161 24.9413 84.9427 24.456C84.5881 23.9707 84.1121 23.56 83.5147 23.224C82.9174 22.888 82.2641 22.58 81.5547 22.3C81.0321 22.0947 80.5561 21.8987 80.1267 21.712C79.7161 21.5253 79.3801 21.32 79.1187 21.096C78.8761 20.8533 78.7547 20.5827 78.7547 20.284C78.7547 19.9293 78.8947 19.6587 79.1747 19.472C79.4547 19.2853 79.8094 19.192 80.2387 19.192C80.8734 19.192 81.4894 19.3507 82.0867 19.668C82.6841 19.9853 83.1974 20.396 83.6267 20.9L85.3067 19.108C84.9521 18.6787 84.5227 18.296 84.0187 17.96C83.5147 17.624 82.9454 17.3533 82.3107 17.148C81.6947 16.9427 81.0321 16.84 80.3227 16.84C79.5387 16.84 78.8014 16.9707 78.1107 17.232C77.4387 17.4747 76.8974 17.8573 76.4867 18.38C76.0947 18.9027 75.8987 19.556 75.8987 20.34C75.8987 21.1053 76.0761 21.74 76.4307 22.244C76.8041 22.748 77.2707 23.1587 77.8307 23.476C78.4094 23.7747 78.9881 24.036 79.5667 24.26C80.1454 24.4653 80.6494 24.6707 81.0787 24.876C81.5081 25.0627 81.8441 25.296 82.0867 25.576C82.3294 25.8373 82.4507 26.1547 82.4507 26.528C82.4507 26.9573 82.2921 27.2933 81.9747 27.536C81.6761 27.7787 81.2561 27.9 80.7147 27.9C80.2854 27.9 79.8561 27.8253 79.4267 27.676C78.9974 27.508 78.5681 27.2653 78.1387 26.948C77.7281 26.612 77.3174 26.22 76.9067 25.772ZM86.3939 17.12V19.78H93.7019V17.12H86.3939ZM88.5499 12.64V30H91.5459V12.64H88.5499ZM95.6755 11.996C95.6755 12.5 95.8621 12.9387 96.2355 13.312C96.6275 13.6667 97.0755 13.844 97.5795 13.844C98.1208 13.844 98.5688 13.6667 98.9235 13.312C99.2968 12.9387 99.4835 12.5 99.4835 11.996C99.4835 11.4733 99.2968 11.0347 98.9235 10.68C98.5688 10.3253 98.1208 10.148 97.5795 10.148C97.0755 10.148 96.6275 10.3253 96.2355 10.68C95.8621 11.0347 95.6755 11.4733 95.6755 11.996ZM96.0955 17.12V30H99.0635V17.12H96.0955ZM102.161 17.12V19.78H109.553V17.12H102.161ZM109.217 11.408L110.645 9.056C110.496 8.86933 110.281 8.68267 110.001 8.496C109.74 8.30933 109.422 8.15067 109.049 8.02C108.676 7.88933 108.237 7.824 107.733 7.824C106.837 7.824 106.081 8.00133 105.465 8.356C104.849 8.692 104.373 9.196 104.037 9.868C103.72 10.5213 103.561 11.352 103.561 12.36V30H106.529V12.948C106.529 12.4067 106.585 11.968 106.697 11.632C106.809 11.296 106.958 11.0533 107.145 10.904C107.35 10.7547 107.593 10.68 107.873 10.68C108.116 10.68 108.349 10.7267 108.573 10.82C108.816 10.9133 109.03 11.1093 109.217 11.408ZM123.262 17.12H120.014L115.982 27.228L117.41 27.312L113.294 17.12H109.822L115.002 28.488L111.642 36.16H114.862L123.262 17.12Z" fill="#454868"/>
<path fill-rule="evenodd" clip-rule="evenodd" d="M7.10938 5.28125C6.67425 5.28125 6.25695 5.4541 5.94928 5.76178C5.6416 6.06945 5.46875 6.48675 5.46875 6.92188V32.0781C5.46875 32.9837 6.20375 33.7188 7.10938 33.7188H15.8594C16.2945 33.7188 16.7118 33.8916 17.0195 34.1993C17.3271 34.507 17.5 34.9243 17.5 35.3594C17.5 35.7945 17.3271 36.2118 17.0195 36.5195C16.7118 36.8271 16.2945 37 15.8594 37H7.10938C5.80401 37 4.55211 36.4814 3.62908 35.5584C2.70605 34.6354 2.1875 33.3835 2.1875 32.0781V6.92188C2.1875 5.61651 2.70605 4.36461 3.62908 3.44158C4.55211 2.51855 5.80401 2 7.10938 2L20.8753 2C21.5994 2 22.2972 2.28875 22.8091 2.80062L32.0119 12.0034C32.5238 12.5175 32.8125 13.2131 32.8125 13.9372V16.7656C32.8125 17.2007 32.6396 17.618 32.332 17.9257C32.0243 18.2334 31.607 18.4062 31.1719 18.4062C30.7368 18.4062 30.3195 18.2334 30.0118 17.9257C29.7041 17.618 29.5312 17.2007 29.5312 16.7656V15.125H21.3281C20.893 15.125 20.4757 14.9521 20.168 14.6445C19.8604 14.3368 19.6875 13.9195 19.6875 13.4844V5.28125H7.10938ZM22.9688 7.6L27.2125 11.8438H22.9688V7.6Z" fill="#454868"/>
<path fill-rule="evenodd" clip-rule="evenodd" d="M35 28.25C35 30.5706 34.0781 32.7962 32.4372 34.4372C30.7962 36.0781 28.5706 37 26.25 37C23.9294 37 21.7038 36.0781 20.0628 34.4372C18.4219 32.7962 17.5 30.5706 17.5 28.25C17.5 25.9294 18.4219 23.7038 20.0628 22.0628C21.7038 20.4219 23.9294 19.5 26.25 19.5C28.5706 19.5 30.7962 20.4219 32.4372 22.0628C34.0781 23.7038 35 25.9294 35 28.25ZM31.255 25.4675C31.5576 25.7797 31.7239 26.1993 31.7174 26.6341C31.7108 27.0689 31.5319 27.4833 31.22 27.7863L25.9569 32.8919C25.6508 33.1886 25.2413 33.3545 24.815 33.3545C24.3887 33.3545 23.9792 33.1886 23.6731 32.8919L21.28 30.5731C20.9673 30.2703 20.7877 29.8556 20.7807 29.4204C20.7738 28.9851 20.94 28.5649 21.2428 28.2522C21.5457 27.9395 21.9603 27.7599 22.3956 27.7529C22.8308 27.7459 23.251 27.9122 23.5638 28.215L24.815 29.4291L28.9362 25.4325C29.2485 25.1299 29.6681 24.9636 30.1029 24.9701C30.5377 24.9767 30.952 25.1556 31.255 25.4675Z" fill="#454868"/>
</svg>
