<svg width="130" height="130" viewBox="0 0 130 130" fill="none" xmlns="http://www.w3.org/2000/svg">
<g clip-path="url(#clip0_1236_1167)">
<path d="M128.698 30.4857C127.456 28.4336 125.493 26.9893 123.171 26.4183L53.9758 9.39943C53.2763 9.22704 52.5575 9.14001 51.839 9.14001C47.6967 9.14001 44.1133 11.9468 43.1248 15.9662L41.0418 24.4357L6.44565 35.4136C1.82264 36.8804 -0.891442 41.7187 0.266802 46.429L16.908 114.089C17.4837 116.429 18.9415 118.393 21.0129 119.618C22.402 120.44 23.9482 120.86 25.5183 120.86C26.2903 120.86 27.0685 120.758 27.8358 120.553L81.1263 106.301L102.245 111.495C102.945 111.668 103.664 111.755 104.383 111.755C108.525 111.755 112.108 108.948 113.096 104.929L129.738 37.2684C130.309 34.9469 129.94 32.5381 128.698 30.4857ZM26.3225 110.643L10.1047 44.7071L38.2527 35.7753L26.4839 83.6257C25.9123 85.9475 26.2819 88.3567 27.5239 90.4091C28.7655 92.4612 30.7279 93.9057 33.0507 94.4771L61.0349 101.36L26.3225 110.643ZM111.508 69.6643L102.044 55.0891C100.885 53.3024 98.957 52.2359 96.8883 52.2359C95.4836 52.2359 94.141 52.7135 93.0054 53.6166L72.8578 69.6451C72.2533 70.1264 71.5142 70.3808 70.7207 70.3808C69.6787 70.3808 68.7085 69.937 68.0588 69.1641L60.4254 60.0795C58.9619 58.3383 56.6175 57.2987 54.1545 57.2987C52.9385 57.2987 51.7607 57.5654 50.7486 58.0693L41.9539 62.4515L52.5638 19.3134L119.824 35.8567L111.508 69.6643Z" fill="#BCBCC3"/>
<path d="M69.0856 48.4429C69.7878 48.6156 70.5079 48.703 71.2253 48.703C75.3461 48.703 78.9125 45.9052 79.8977 41.8994C81.0742 37.1146 78.1389 32.264 73.3542 31.0869C72.652 30.9141 71.9318 30.8268 71.2144 30.8268C67.0936 30.8268 63.5272 33.6246 62.542 37.6304C61.3655 42.4152 64.3008 47.2657 69.0856 48.4429Z" fill="#BCBCC3"/>
</g>
<defs>
<clipPath id="clip0_1236_1167">
<rect width="130" height="130" fill="white"/>
</clipPath>
</defs>
</svg>
