<svg width="15" height="15" viewBox="0 0 15 15" fill="none" xmlns="http://www.w3.org/2000/svg">
<path fill-rule="evenodd" clip-rule="evenodd" d="M1.66812 11.4558C1.61156 11.6199 1.64315 11.8018 1.75117 11.9378C3.04736 13.5688 5.13687 14.6332 7.49488 14.6332C9.8529 14.6332 11.9424 13.5688 13.2386 11.9378C13.3466 11.8018 13.3777 11.6199 13.3217 11.4558C12.538 9.17069 10.2289 7.5 7.49488 7.5C4.76085 7.5 2.45175 9.17069 1.66812 11.4558Z" fill="#999999"/>
<path d="M7.49493 6.48095C9.1833 6.48095 10.552 5.11226 10.552 3.42389C10.552 1.73552 9.1833 0.366821 7.49493 0.366821C5.80656 0.366821 4.43787 1.73552 4.43787 3.42389C4.43787 5.11226 5.80656 6.48095 7.49493 6.48095Z" fill="#999999"/>
</svg>
